<?xml version="1.0" encoding="UTF-8" standalone="no"?>
<!-- Created with Inkscape (http://www.inkscape.org/) -->

<svg
   xmlns:dc="http://purl.org/dc/elements/1.1/"
   xmlns:cc="http://creativecommons.org/ns#"
   xmlns:rdf="http://www.w3.org/1999/02/22-rdf-syntax-ns#"
   xmlns:svg="http://www.w3.org/2000/svg"
   xmlns="http://www.w3.org/2000/svg"
   xmlns:sodipodi="http://sodipodi.sourceforge.net/DTD/sodipodi-0.dtd"
   xmlns:inkscape="http://www.inkscape.org/namespaces/inkscape"
   width="600"
   height="300"
   viewBox="0 0 158.75 79.375002"
   version="1.1"
   id="svg8"
   sodipodi:docname="taiwins-full.svg"
   inkscape:export-filename="C:\Users\Sichem\Pictures\fulllogo.png"
   inkscape:export-xdpi="96.397987"
   inkscape:export-ydpi="96.397987"
   inkscape:version="0.92.4 5da689c313, 2019-01-14">
  <defs
     id="defs2" />
  <sodipodi:namedview
     id="base"
     pagecolor="#ffffff"
     bordercolor="#666666"
     borderopacity="1.0"
     inkscape:pageopacity="0.0"
     inkscape:pageshadow="2"
     inkscape:zoom="1.4"
     inkscape:cx="391.19987"
     inkscape:cy="160.34311"
     inkscape:document-units="px"
     inkscape:current-layer="flowRoot4695"
     showgrid="true"
     inkscape:window-width="1920"
     inkscape:window-height="1061"
     inkscape:window-x="0"
     inkscape:window-y="0"
     inkscape:window-maximized="1"
     units="px">
    <inkscape:grid
       type="xygrid"
       id="grid3787" />
  </sodipodi:namedview>
  <metadata
     id="metadata5">
    <rdf:RDF>
      <cc:Work
         rdf:about="">
        <dc:format>image/svg+xml</dc:format>
        <dc:type
           rdf:resource="http://purl.org/dc/dcmitype/StillImage" />
        <dc:title></dc:title>
      </cc:Work>
    </rdf:RDF>
  </metadata>
  <g
     inkscape:label="Layer 1"
     inkscape:groupmode="layer"
     id="layer1"
     transform="translate(0,-217.62499)">
    <g
       aria-label="aiwins"
       transform="matrix(0.43824305,0,0,0.4133392,-70.281914,-60.28868)"
       style="font-style:normal;font-variant:normal;font-weight:bold;font-stretch:normal;font-size:61.71201324px;line-height:1.25;font-family:'Trebuchet MS';-inkscape-font-specification:'Trebuchet MS, Bold';font-variant-ligatures:normal;font-variant-caps:normal;font-variant-numeric:normal;font-feature-settings:normal;text-align:start;letter-spacing:0px;word-spacing:0px;writing-mode:lr-tb;text-anchor:start;fill:#000000;fill-opacity:1;stroke:none"
       id="flowRoot4695">
      <path
         d="m 328.15063,784.35824 q -1.02452,1.68744 -3.58581,2.77222 -2.53115,1.05465 -5.30337,1.05465 -5.21298,0 -8.19613,-2.59143 -2.98315,-2.62155 -2.98315,-7.41267 0,-5.6047 4.18846,-8.76865 4.2186,-3.16395 11.96273,-3.16395 1.32585,0 3.13382,0.452 0,-5.69511 -7.20175,-5.69511 -4.24873,0 -7.11134,1.41625 l -1.62718,-5.84577 q 3.88714,-1.86824 9.25078,-1.86824 7.38254,0 10.81768,3.37488 3.43514,3.34474 3.43514,12.71605 v 6.90041 q 0,6.44843 2.59143,8.10573 -0.93412,1.62717 -2.07917,1.98877 -1.14505,0.39173 -2.62155,0.39173 -1.62718,0 -2.92289,-1.20532 -1.29571,-1.20531 -1.7477,-2.62155 z m -0.72319,-11.96273 q -1.9285,-0.39173 -2.89275,-0.39173 -8.91931,0 -8.91931,5.84577 0,4.33912 5.03218,4.33912 6.77988,0 6.77988,-6.77988 z"
         id="path825"
         inkscape:connector-curvature="0" />
      <path
         d="m 349.00254,742.80508 q 1.80797,0 3.07355,1.29571 1.29571,1.26558 1.29571,3.07355 0,1.80797 -1.29571,3.10368 -1.26558,1.26558 -3.07355,1.26558 -1.80797,0 -3.10368,-1.26558 -1.26558,-1.29571 -1.26558,-3.10368 0,-1.80797 1.26558,-3.07355 1.29571,-1.29571 3.10368,-1.29571 z m -3.88714,44.77737 v -26.09502 h -4.12819 v -6.17723 h 11.7518 v 32.27225 z"
         id="path827"
         inkscape:connector-curvature="0" />
      <path
         d="m 393.23752,788.18511 h -2.74209 l -8.85905,-19.8274 -8.82892,19.8274 h -2.77222 L 357.86159,755.3102 h 7.92493 l 6.47855,19.25487 7.8948,-19.25487 h 2.71196 l 8.16599,19.3754 6.99081,-19.3754 h 7.41268 z"
         id="path829"
         inkscape:connector-curvature="0" />
      <path
         d="m 415.77687,742.80508 q 1.80797,0 3.07355,1.29571 1.29571,1.26558 1.29571,3.07355 0,1.80797 -1.29571,3.10368 -1.26558,1.26558 -3.07355,1.26558 -1.80797,0 -3.10368,-1.26558 -1.26558,-1.29571 -1.26558,-3.10368 0,-1.80797 1.26558,-3.07355 1.29571,-1.29571 3.10368,-1.29571 z m -3.88714,44.77737 v -26.09502 h -4.12819 v -6.17723 h 11.7518 v 32.27225 z"
         id="path831"
         inkscape:connector-curvature="0" />
      <path
         d="m 449.07363,787.58245 v -18.65222 q 0,-4.12819 -1.59704,-6.02656 -1.5669,-1.89837 -5.15271,-1.89837 -1.6573,0 -3.55567,0.93412 -1.86824,0.93412 -2.92289,2.32023 v 23.3228 h -7.5332 V 755.3102 h 5.42391 l 1.38611,3.01328 q 3.07354,-3.61594 9.06998,-3.61594 5.75536,0 9.06997,3.46528 3.34475,3.43514 3.34475,9.61237 v 19.79726 z"
         id="path833"
         inkscape:connector-curvature="0" />
      <path
         d="m 462.72379,785.50328 2.68182,-5.99643 q 3.37488,2.68182 7.6236,2.68182 4.3994,0 4.3994,-3.13381 0,-1.8381 -1.32585,-3.01328 -1.32584,-1.17518 -5.15271,-2.77222 -8.34679,-3.46527 -8.34679,-9.70277 0,-4.18846 3.19408,-6.50869 3.19408,-2.35036 8.16599,-2.35036 5.03218,0 9.46171,2.25996 l -2.16957,5.84577 q -2.47089,-2.1093 -6.87028,-2.1093 -3.9474,0 -3.9474,3.13382 0,1.23544 1.29571,2.22983 1.29571,0.99438 5.54444,2.68182 4.24873,1.6573 6.11696,4.03779 1.86824,2.3805 1.86824,5.75537 0,4.48979 -3.34474,7.08122 -3.31461,2.56129 -9.03985,2.56129 -3.22421,0 -5.18284,-0.5424 -1.92851,-0.51225 -4.97192,-2.13943 z"
         id="path835"
         inkscape:connector-curvature="0" />
    </g>
    <path
       style="fill:#510051;fill-opacity:1;stroke-width:0.13229166"
       d="m 40.73655,233.67844 a 18.441597,18.508415 0 0 0 -10.834223,3.5587 h 21.674131 a 18.441597,18.508415 0 0 0 -10.839908,-3.5587 z"
       id="path4693"
       inkscape:connector-curvature="0" />
    <path
       style="fill:#d1a250;fill-opacity:1;stroke-width:0.22818287"
       d="m 25.110838,237.94533 -2.908918,3.08936 37.24994,0.66691 -3.833641,-3.75144 z"
       id="path4691"
       inkscape:connector-curvature="0"
       sodipodi:nodetypes="ccccc" />
    <path
       style="fill:#d1a250;fill-opacity:1;stroke-width:0.18481822"
       d="m 22.20192,241.03469 c -0.626559,0.69959 -5.222645,4.79939 -5.972485,5.99404 l 31.784023,1.03618 -0.115844,0.48271 -4.53153,33.65412 c 0.846621,-0.91024 1.483205,-1.61566 2.16829,-2.45938 l 5.102874,-34.78925 z"
       id="path4689"
       inkscape:connector-curvature="0"
       sodipodi:nodetypes="cccccccc" />
    <path
       style="fill:#d1a250;fill-opacity:1;stroke-width:0.17666233"
       d="m 54.429092,244.84746 -8.894718,34.8949 2.770469,-4.10957 8.304845,-27.38773 0.0053,-0.0186 0.0795,-0.29621 6.641288,-2.48256 -3.883969,-3.74609 z"
       id="path4687"
       inkscape:connector-curvature="0"
       sodipodi:nodetypes="ccccccccc" />
    <path
       style="opacity:0.88999999;fill:#510051;fill-opacity:1;stroke-width:0.13229166"
       d="m 22.869128,247.89367 c -0.323855,1.14942 -0.567163,3.10521 -0.574347,4.29322 -9e-6,10.22204 8.256683,18.50863 18.441769,18.50853 0.103966,-0.004 1.0485,-0.0509 1.731632,-0.16591 0.7804,-0.13135 1.594155,-0.59768 1.697916,-0.60551 l 3.202346,-21.27438 z"
       id="path4685"
       inkscape:connector-curvature="0"
       sodipodi:nodetypes="cccsccc" />
    <path
       style="fill:#510051;fill-opacity:1;stroke-width:0.13229166"
       d="m 57.126505,248.64962 -5.52528,18.22464 c 4.389708,-3.50379 7.566305,-9.05833 7.576835,-14.68737 -0.0092,-1.18821 -0.266075,-3.2414 -0.50157,-4.4059 z"
       id="path4518"
       inkscape:connector-curvature="0"
       sodipodi:nodetypes="ccccc" />
  </g>
</svg>
